<?xml version="1.0" standalone="no"?>
<!DOCTYPE svg PUBLIC "-//W3C//DTD SVG 20010904//EN"
 "http://www.w3.org/TR/2001/REC-SVG-20010904/DTD/svg10.dtd">
<svg version="1.0" xmlns="http://www.w3.org/2000/svg"
 width="288.000000pt" height="288.000000pt" viewBox="0 0 288.000000 288.000000"
 preserveAspectRatio="xMidYMid meet">
<metadata>
Created by potrace 1.11, written by Peter Selinger 2001-2013
</metadata>
<g transform="translate(0.000000,288.000000) scale(0.100000,-0.100000)"
fill="#000000" stroke="none">
<path d="M1085 2860 c-4 -6 -68 -10 -161 -10 -85 0 -154 -3 -154 -7 0 -5 4
-24 10 -43 5 -19 11 -61 14 -92 l4 -58 -26 14 c-50 26 -86 84 -94 151 -2 18
-10 32 -21 35 -10 3 -83 4 -164 2 l-146 -3 7 -137 c15 -317 82 -605 193 -826
60 -120 102 -174 219 -285 91 -86 146 -126 451 -323 50 -32 87 -63 94 -79 17
-42 1 -117 -32 -152 -39 -40 -42 -76 -9 -112 27 -31 39 -103 24 -148 -11 -31
-11 -39 3 -52 14 -14 12 -21 -19 -68 -96 -144 -243 -263 -350 -283 -48 -10
-68 -22 -68 -44 0 -14 -6 -18 -22 -15 -47 8 -61 -16 -63 -113 -1 -76 -4 -91
-23 -110 -12 -12 -22 -33 -22 -47 l0 -25 710 0 710 0 0 25 c0 13 -9 32 -20 42
-16 16 -19 34 -21 106 -1 48 -5 87 -10 87 -5 0 -9 7 -9 15 0 8 -3 14 -7 14 -5
-1 -20 -1 -35 0 -23 1 -28 6 -28 25 0 21 -7 26 -52 35 -118 26 -263 139 -357
279 -39 58 -41 65 -26 76 16 11 16 17 5 50 -15 46 -6 97 26 153 30 52 30 68
-1 99 -37 37 -45 57 -45 114 0 44 4 56 29 79 33 31 100 76 214 146 180 109
358 262 442 380 150 210 254 575 271 951 l7 144 -167 0 -166 0 0 -34 c0 -18
-7 -49 -15 -69 -14 -34 -67 -87 -87 -87 -11 0 -6 91 8 158 5 27 4 32 -12 32
-11 0 -236 0 -501 0 -321 0 -483 3 -483 10 0 13 -17 13 -25 0z m-491 -175 c28
-51 90 -109 146 -135 27 -13 51 -29 51 -37 1 -7 2 -16 3 -20 1 -5 6 -48 10
-98 5 -49 9 -97 11 -105 1 -8 6 -46 9 -85 8 -78 8 -80 31 -220 19 -113 60
-283 80 -332 8 -18 10 -35 5 -38 -12 -7 -150 124 -195 184 -83 114 -191 391
-221 566 -2 17 -9 55 -14 85 -13 80 -19 127 -22 199 -3 62 -2 65 22 71 41 10
65 0 84 -35z m1801 -33 c-21 -270 -84 -509 -192 -732 -51 -104 -64 -123 -155
-214 -54 -54 -101 -97 -103 -94 -3 3 6 40 20 84 14 43 27 88 29 99 2 11 11 54
20 95 8 41 22 127 31 190 21 156 21 156 36 312 l13 136 49 23 c56 27 114 81
142 133 16 30 25 35 60 38 22 2 43 2 47 0 5 -2 6 -33 3 -70z"/>
</g>
</svg>
