<svg xmlns="http://www.w3.org/2000/svg" xmlns:xlink="http://www.w3.org/1999/xlink" viewBox="0 0 1367 665.44"><defs><style>.cls-1{fill:url(#linear-gradient);}</style><linearGradient id="linear-gradient" x1="880.51" y1="198.84" x2="123.23" y2="713.46" gradientUnits="userSpaceOnUse"><stop offset="0" stop-color="#2a9dff"/><stop offset="1" stop-color="#00e9d2"/></linearGradient></defs><title>Asset 11</title><g id="Layer_2" data-name="Layer 2"><g id="Layer_1-2" data-name="Layer 1"><path class="cls-1" d="M.38,633.42,0,0H479S704,153,986,153c284,0,381,58,381,58V665.44L1262,648.9c-37.15-5.85-74.23-13.83-112-14.9-38.66-1.09-78,6-116.4,10.12-56,6-111.56,17.57-168,18.44-27.21.42-54.55-3.59-81.6-6.22L591.62,637.58c-74.54-7.27-148.57,4.47-222.95,11.84-50.15,5-102.12,17.66-152.61,12.69-25.5-2.51-50.95-6.78-76.34-10.15C130.07,650.67.38,636.33.38,633.42Z"/></g></g></svg>